<svg xmlns="http://www.w3.org/2000/svg" viewBox="0 0 64 64">
  <rect width="64" height="64" rx="14" fill="#0F172A"/>
  <g fill="#fff">
    <!-- 5 arched columns forming "mim" -->
    <path d="M6,50 V12 A4,4 0 0,1 14,12 V50Z"/>
    <path d="M17,50 V12 A4,4 0 0,1 25,12 V50Z"/>
    <path d="M28,50 V12 A4,4 0 0,1 36,12 V50Z"/>
    <path d="M39,50 V12 A4,4 0 0,1 47,12 V50Z"/>
    <path d="M50,50 V12 A4,4 0 0,1 58,12 V50Z"/>
    <!-- Base bar -->
    <rect x="6" y="50" width="52" height="7" rx="1.5"/>
  </g>
</svg>
